<mxfile host="app.diagrams.net" modified="2023-02-23T03:17:00.481Z" agent="5.0 (Windows NT 10.0; Win64; x64) AppleWebKit/537.36 (KHTML, like Gecko) Chrome/93.0.4577.63 Safari/537.36 Edg/93.0.961.47" etag="lwcnZYpYU5WddsqWrLMv" version="20.8.22" type="github">
  <diagram name="第 1 页" id="16RI17mL2uCNAuS8TD31">
    <mxGraphModel dx="1877" dy="1784" grid="1" gridSize="10" guides="1" tooltips="1" connect="1" arrows="1" fold="1" page="1" pageScale="1" pageWidth="827" pageHeight="1169" math="0" shadow="0">
      <root>
        <mxCell id="0" />
        <mxCell id="1" parent="0" />
        <mxCell id="DAp46HCaXQgZN_aL6sgi-1" value="控制模块&lt;br&gt;ControlModule&lt;br&gt;&lt;br&gt;&lt;br&gt;" style="whiteSpace=wrap;html=1;aspect=fixed;" vertex="1" parent="1">
          <mxGeometry x="414" y="310" width="80" height="80" as="geometry" />
        </mxCell>
        <mxCell id="DAp46HCaXQgZN_aL6sgi-3" value="数据模块&lt;br style=&quot;border-color: var(--border-color);&quot;&gt;DataModule&lt;br style=&quot;border-color: var(--border-color);&quot;&gt;&lt;br style=&quot;border-color: var(--border-color);&quot;&gt;特征容器" style="whiteSpace=wrap;html=1;aspect=fixed;" vertex="1" parent="1">
          <mxGeometry x="15" y="430" width="75" height="75" as="geometry" />
        </mxCell>
        <mxCell id="DAp46HCaXQgZN_aL6sgi-7" value="" style="endArrow=none;html=1;rounded=0;entryX=1;entryY=0.5;entryDx=0;entryDy=0;exitX=0;exitY=0.5;exitDx=0;exitDy=0;" edge="1" parent="1" source="DAp46HCaXQgZN_aL6sgi-1" target="DAp46HCaXQgZN_aL6sgi-1">
          <mxGeometry width="50" height="50" relative="1" as="geometry">
            <mxPoint x="130" y="310" as="sourcePoint" />
            <mxPoint x="190" y="310" as="targetPoint" />
          </mxGeometry>
        </mxCell>
        <mxCell id="DAp46HCaXQgZN_aL6sgi-20" value="控制面板&lt;br&gt;ControlWidget&lt;br&gt;模型历史树&lt;br&gt;MyTreeView" style="rounded=0;whiteSpace=wrap;html=1;" vertex="1" parent="1">
          <mxGeometry x="2.5" y="-10" width="155" height="90" as="geometry" />
        </mxCell>
        <mxCell id="DAp46HCaXQgZN_aL6sgi-23" value="" style="endArrow=classic;html=1;rounded=0;exitX=0.5;exitY=1;exitDx=0;exitDy=0;entryX=0.501;entryY=-0.033;entryDx=0;entryDy=0;entryPerimeter=0;" edge="1" parent="1" source="DAp46HCaXQgZN_aL6sgi-3" target="DAp46HCaXQgZN_aL6sgi-102">
          <mxGeometry width="50" height="50" relative="1" as="geometry">
            <mxPoint x="270" y="310" as="sourcePoint" />
            <mxPoint x="52.5" y="550" as="targetPoint" />
            <Array as="points" />
          </mxGeometry>
        </mxCell>
        <mxCell id="DAp46HCaXQgZN_aL6sgi-24" value="" style="endArrow=classic;html=1;rounded=0;exitX=0.013;exitY=0.092;exitDx=0;exitDy=0;entryX=1.015;entryY=0.233;entryDx=0;entryDy=0;exitPerimeter=0;entryPerimeter=0;" edge="1" parent="1" source="DAp46HCaXQgZN_aL6sgi-95" target="DAp46HCaXQgZN_aL6sgi-127">
          <mxGeometry width="50" height="50" relative="1" as="geometry">
            <mxPoint x="270" y="200" as="sourcePoint" />
            <mxPoint x="95" y="200" as="targetPoint" />
            <Array as="points">
              <mxPoint x="250" y="200" />
            </Array>
          </mxGeometry>
        </mxCell>
        <mxCell id="DAp46HCaXQgZN_aL6sgi-27" value="视图显示" style="edgeLabel;html=1;align=center;verticalAlign=middle;resizable=0;points=[];" vertex="1" connectable="0" parent="DAp46HCaXQgZN_aL6sgi-24">
          <mxGeometry x="0.44" y="-3" relative="1" as="geometry">
            <mxPoint x="6" y="3" as="offset" />
          </mxGeometry>
        </mxCell>
        <mxCell id="DAp46HCaXQgZN_aL6sgi-25" value="" style="endArrow=classic;html=1;rounded=0;entryX=0.579;entryY=0.007;entryDx=0;entryDy=0;entryPerimeter=0;edgeStyle=orthogonalEdgeStyle;" edge="1" parent="1" target="DAp46HCaXQgZN_aL6sgi-20">
          <mxGeometry width="50" height="50" relative="1" as="geometry">
            <mxPoint x="200" y="200" as="sourcePoint" />
            <mxPoint x="200" y="10" as="targetPoint" />
            <Array as="points">
              <mxPoint x="220" y="200" />
              <mxPoint x="220" y="-20" />
              <mxPoint x="105" y="-20" />
              <mxPoint x="105" y="-9" />
            </Array>
          </mxGeometry>
        </mxCell>
        <mxCell id="DAp46HCaXQgZN_aL6sgi-28" value="构建模型历史树" style="edgeLabel;html=1;align=center;verticalAlign=middle;resizable=0;points=[];" vertex="1" connectable="0" parent="DAp46HCaXQgZN_aL6sgi-25">
          <mxGeometry x="0.5555" y="-3" relative="1" as="geometry">
            <mxPoint as="offset" />
          </mxGeometry>
        </mxCell>
        <mxCell id="DAp46HCaXQgZN_aL6sgi-29" value="" style="endArrow=classic;html=1;rounded=0;edgeStyle=orthogonalEdgeStyle;entryX=0.357;entryY=0;entryDx=0;entryDy=0;entryPerimeter=0;" edge="1" parent="1" target="DAp46HCaXQgZN_aL6sgi-73">
          <mxGeometry width="50" height="50" relative="1" as="geometry">
            <mxPoint x="220" y="-20" as="sourcePoint" />
            <mxPoint x="510" y="50" as="targetPoint" />
            <Array as="points">
              <mxPoint x="510" y="-20" />
            </Array>
          </mxGeometry>
        </mxCell>
        <mxCell id="DAp46HCaXQgZN_aL6sgi-30" value="构建输出" style="edgeLabel;html=1;align=center;verticalAlign=middle;resizable=0;points=[];" vertex="1" connectable="0" parent="DAp46HCaXQgZN_aL6sgi-29">
          <mxGeometry x="0.0229" y="5" relative="1" as="geometry">
            <mxPoint as="offset" />
          </mxGeometry>
        </mxCell>
        <mxCell id="DAp46HCaXQgZN_aL6sgi-31" value="" style="endArrow=classic;html=1;rounded=0;edgeStyle=orthogonalEdgeStyle;dashed=1;entryX=0.401;entryY=1;entryDx=0;entryDy=0;entryPerimeter=0;" edge="1" parent="1" source="DAp46HCaXQgZN_aL6sgi-20" target="DAp46HCaXQgZN_aL6sgi-97">
          <mxGeometry width="50" height="50" relative="1" as="geometry">
            <mxPoint x="-40" y="40" as="sourcePoint" />
            <mxPoint x="330" y="230" as="targetPoint" />
            <Array as="points">
              <mxPoint x="-80" y="40" />
              <mxPoint x="-80" y="310" />
              <mxPoint x="330" y="310" />
            </Array>
          </mxGeometry>
        </mxCell>
        <mxCell id="DAp46HCaXQgZN_aL6sgi-37" value="树节点操作" style="edgeLabel;html=1;align=center;verticalAlign=middle;resizable=0;points=[];" vertex="1" connectable="0" parent="DAp46HCaXQgZN_aL6sgi-31">
          <mxGeometry x="-0.5563" y="1" relative="1" as="geometry">
            <mxPoint as="offset" />
          </mxGeometry>
        </mxCell>
        <mxCell id="DAp46HCaXQgZN_aL6sgi-38" value="" style="endArrow=classic;html=1;rounded=0;exitX=0.56;exitY=1.167;exitDx=0;exitDy=0;dashed=1;exitPerimeter=0;" edge="1" parent="1" source="DAp46HCaXQgZN_aL6sgi-127">
          <mxGeometry width="50" height="50" relative="1" as="geometry">
            <mxPoint x="35" y="230" as="sourcePoint" />
            <mxPoint x="40" y="310" as="targetPoint" />
            <Array as="points" />
          </mxGeometry>
        </mxCell>
        <mxCell id="DAp46HCaXQgZN_aL6sgi-39" value="视图操作" style="edgeLabel;html=1;align=center;verticalAlign=middle;resizable=0;points=[];" vertex="1" connectable="0" parent="DAp46HCaXQgZN_aL6sgi-38">
          <mxGeometry x="-0.28" relative="1" as="geometry">
            <mxPoint as="offset" />
          </mxGeometry>
        </mxCell>
        <mxCell id="DAp46HCaXQgZN_aL6sgi-40" value="" style="endArrow=classic;html=1;rounded=0;exitX=1;exitY=0.5;exitDx=0;exitDy=0;entryX=0.5;entryY=0;entryDx=0;entryDy=0;edgeStyle=orthogonalEdgeStyle;" edge="1" parent="1" source="DAp46HCaXQgZN_aL6sgi-95" target="DAp46HCaXQgZN_aL6sgi-1">
          <mxGeometry width="50" height="50" relative="1" as="geometry">
            <mxPoint x="390" y="200" as="sourcePoint" />
            <mxPoint x="480" y="190" as="targetPoint" />
          </mxGeometry>
        </mxCell>
        <mxCell id="DAp46HCaXQgZN_aL6sgi-41" value="" style="endArrow=classic;html=1;rounded=0;exitX=-0.004;exitY=0.046;exitDx=0;exitDy=0;entryX=1;entryY=0.5;entryDx=0;entryDy=0;edgeStyle=orthogonalEdgeStyle;dashed=1;exitPerimeter=0;" edge="1" parent="1" source="DAp46HCaXQgZN_aL6sgi-97" target="DAp46HCaXQgZN_aL6sgi-20">
          <mxGeometry width="50" height="50" relative="1" as="geometry">
            <mxPoint x="270" y="215" as="sourcePoint" />
            <mxPoint x="420" y="180" as="targetPoint" />
            <Array as="points">
              <mxPoint x="273" y="215" />
              <mxPoint x="200" y="215" />
              <mxPoint x="200" y="35" />
            </Array>
          </mxGeometry>
        </mxCell>
        <mxCell id="DAp46HCaXQgZN_aL6sgi-42" value="构建特征参数窗口" style="edgeLabel;html=1;align=center;verticalAlign=middle;resizable=0;points=[];" vertex="1" connectable="0" parent="DAp46HCaXQgZN_aL6sgi-41">
          <mxGeometry x="-0.1631" y="4" relative="1" as="geometry">
            <mxPoint x="-46" y="-43" as="offset" />
          </mxGeometry>
        </mxCell>
        <mxCell id="DAp46HCaXQgZN_aL6sgi-46" value="" style="endArrow=classic;html=1;rounded=0;entryX=0.5;entryY=0;entryDx=0;entryDy=0;exitX=-0.022;exitY=0.85;exitDx=0;exitDy=0;exitPerimeter=0;" edge="1" parent="1" source="DAp46HCaXQgZN_aL6sgi-1" target="DAp46HCaXQgZN_aL6sgi-3">
          <mxGeometry width="50" height="50" relative="1" as="geometry">
            <mxPoint x="310" y="390" as="sourcePoint" />
            <mxPoint x="170" y="270" as="targetPoint" />
            <Array as="points">
              <mxPoint x="53" y="360" />
              <mxPoint x="55" y="390" />
              <mxPoint x="55" y="410" />
            </Array>
          </mxGeometry>
        </mxCell>
        <mxCell id="DAp46HCaXQgZN_aL6sgi-47" value="更改数据" style="edgeLabel;html=1;align=center;verticalAlign=middle;resizable=0;points=[];" vertex="1" connectable="0" parent="DAp46HCaXQgZN_aL6sgi-46">
          <mxGeometry x="0.2973" relative="1" as="geometry">
            <mxPoint as="offset" />
          </mxGeometry>
        </mxCell>
        <mxCell id="DAp46HCaXQgZN_aL6sgi-53" value="" style="endArrow=classic;html=1;rounded=0;exitX=0.5;exitY=1;exitDx=0;exitDy=0;entryX=0.474;entryY=-0.047;entryDx=0;entryDy=0;entryPerimeter=0;" edge="1" parent="1" source="DAp46HCaXQgZN_aL6sgi-1" target="DAp46HCaXQgZN_aL6sgi-114">
          <mxGeometry width="50" height="50" relative="1" as="geometry">
            <mxPoint x="500" y="360" as="sourcePoint" />
            <mxPoint x="445" y="440" as="targetPoint" />
          </mxGeometry>
        </mxCell>
        <mxCell id="DAp46HCaXQgZN_aL6sgi-54" value="生成工具面板" style="edgeLabel;html=1;align=center;verticalAlign=middle;resizable=0;points=[];" vertex="1" connectable="0" parent="DAp46HCaXQgZN_aL6sgi-53">
          <mxGeometry x="0.1168" y="-1" relative="1" as="geometry">
            <mxPoint x="-18" y="3" as="offset" />
          </mxGeometry>
        </mxCell>
        <mxCell id="DAp46HCaXQgZN_aL6sgi-55" value="" style="endArrow=classic;html=1;rounded=0;exitX=1.011;exitY=0.967;exitDx=0;exitDy=0;entryX=1.028;entryY=0.63;entryDx=0;entryDy=0;entryPerimeter=0;dashed=1;edgeStyle=orthogonalEdgeStyle;exitPerimeter=0;" edge="1" parent="1" source="DAp46HCaXQgZN_aL6sgi-114" target="DAp46HCaXQgZN_aL6sgi-1">
          <mxGeometry width="50" height="50" relative="1" as="geometry">
            <mxPoint x="500" y="485" as="sourcePoint" />
            <mxPoint x="750" y="240" as="targetPoint" />
            <Array as="points">
              <mxPoint x="610" y="488" />
              <mxPoint x="610" y="360" />
            </Array>
          </mxGeometry>
        </mxCell>
        <mxCell id="DAp46HCaXQgZN_aL6sgi-56" value="" style="endArrow=classic;html=1;rounded=0;entryX=1;entryY=0.425;entryDx=0;entryDy=0;entryPerimeter=0;exitX=-0.017;exitY=0.887;exitDx=0;exitDy=0;exitPerimeter=0;" edge="1" parent="1" source="DAp46HCaXQgZN_aL6sgi-114" target="DAp46HCaXQgZN_aL6sgi-3">
          <mxGeometry width="50" height="50" relative="1" as="geometry">
            <mxPoint x="390" y="470" as="sourcePoint" />
            <mxPoint x="160" y="370" as="targetPoint" />
            <Array as="points" />
          </mxGeometry>
        </mxCell>
        <mxCell id="DAp46HCaXQgZN_aL6sgi-57" value="获取数据" style="edgeLabel;html=1;align=center;verticalAlign=middle;resizable=0;points=[];" vertex="1" connectable="0" parent="DAp46HCaXQgZN_aL6sgi-56">
          <mxGeometry x="-0.1554" relative="1" as="geometry">
            <mxPoint as="offset" />
          </mxGeometry>
        </mxCell>
        <mxCell id="DAp46HCaXQgZN_aL6sgi-58" value="" style="endArrow=classic;html=1;rounded=0;exitX=0;exitY=0.5;exitDx=0;exitDy=0;edgeStyle=orthogonalEdgeStyle;entryX=0.564;entryY=-0.169;entryDx=0;entryDy=0;entryPerimeter=0;" edge="1" parent="1" source="DAp46HCaXQgZN_aL6sgi-3" target="DAp46HCaXQgZN_aL6sgi-73">
          <mxGeometry width="50" height="50" relative="1" as="geometry">
            <mxPoint x="240" y="320" as="sourcePoint" />
            <mxPoint x="540" y="40" as="targetPoint" />
            <Array as="points">
              <mxPoint x="-120" y="468" />
              <mxPoint x="-120" y="-50" />
              <mxPoint x="540" y="-50" />
            </Array>
          </mxGeometry>
        </mxCell>
        <mxCell id="DAp46HCaXQgZN_aL6sgi-61" value="视图更新" style="edgeLabel;html=1;align=center;verticalAlign=middle;resizable=0;points=[];" vertex="1" connectable="0" parent="DAp46HCaXQgZN_aL6sgi-58">
          <mxGeometry x="-0.6999" y="-4" relative="1" as="geometry">
            <mxPoint as="offset" />
          </mxGeometry>
        </mxCell>
        <mxCell id="DAp46HCaXQgZN_aL6sgi-62" value="" style="endArrow=classic;html=1;rounded=0;entryX=-0.012;entryY=0;entryDx=0;entryDy=0;entryPerimeter=0;" edge="1" parent="1" target="DAp46HCaXQgZN_aL6sgi-127">
          <mxGeometry width="50" height="50" relative="1" as="geometry">
            <mxPoint x="-120" y="200" as="sourcePoint" />
            <mxPoint x="-25" y="200" as="targetPoint" />
          </mxGeometry>
        </mxCell>
        <mxCell id="DAp46HCaXQgZN_aL6sgi-63" value="" style="endArrow=classic;html=1;rounded=0;entryX=0.37;entryY=0.016;entryDx=0;entryDy=0;entryPerimeter=0;" edge="1" parent="1" target="DAp46HCaXQgZN_aL6sgi-20">
          <mxGeometry width="50" height="50" relative="1" as="geometry">
            <mxPoint x="60" y="-50" as="sourcePoint" />
            <mxPoint x="290" y="130" as="targetPoint" />
          </mxGeometry>
        </mxCell>
        <mxCell id="DAp46HCaXQgZN_aL6sgi-72" value="" style="shape=table;startSize=0;container=1;collapsible=0;childLayout=tableLayout;fontSize=16;dashed=1;" vertex="1" parent="1">
          <mxGeometry x="460" y="-10" width="140" height="130" as="geometry" />
        </mxCell>
        <mxCell id="DAp46HCaXQgZN_aL6sgi-73" value="" style="shape=tableRow;horizontal=0;startSize=0;swimlaneHead=0;swimlaneBody=0;strokeColor=inherit;top=0;left=0;bottom=0;right=0;collapsible=0;dropTarget=0;fillColor=none;points=[[0,0.5],[1,0.5]];portConstraint=eastwest;fontSize=16;" vertex="1" parent="DAp46HCaXQgZN_aL6sgi-72">
          <mxGeometry width="140" height="26" as="geometry" />
        </mxCell>
        <mxCell id="DAp46HCaXQgZN_aL6sgi-74" value="&lt;font style=&quot;font-size: 16px;&quot;&gt;输出窗口&lt;/font&gt;" style="shape=partialRectangle;html=1;whiteSpace=wrap;connectable=0;strokeColor=inherit;overflow=hidden;fillColor=none;top=0;left=0;bottom=0;right=0;pointerEvents=1;fontSize=16;" vertex="1" parent="DAp46HCaXQgZN_aL6sgi-73">
          <mxGeometry width="140" height="26" as="geometry">
            <mxRectangle width="140" height="26" as="alternateBounds" />
          </mxGeometry>
        </mxCell>
        <mxCell id="DAp46HCaXQgZN_aL6sgi-77" value="" style="shape=tableRow;horizontal=0;startSize=0;swimlaneHead=0;swimlaneBody=0;strokeColor=inherit;top=0;left=0;bottom=0;right=0;collapsible=0;dropTarget=0;fillColor=none;points=[[0,0.5],[1,0.5]];portConstraint=eastwest;fontSize=16;" vertex="1" parent="DAp46HCaXQgZN_aL6sgi-72">
          <mxGeometry y="26" width="140" height="26" as="geometry" />
        </mxCell>
        <mxCell id="DAp46HCaXQgZN_aL6sgi-78" value="&lt;font style=&quot;font-size: 12px;&quot;&gt;特征属性窗口&lt;/font&gt;" style="shape=partialRectangle;html=1;whiteSpace=wrap;connectable=0;strokeColor=inherit;overflow=hidden;fillColor=none;top=0;left=0;bottom=0;right=0;pointerEvents=1;fontSize=16;" vertex="1" parent="DAp46HCaXQgZN_aL6sgi-77">
          <mxGeometry width="140" height="26" as="geometry">
            <mxRectangle width="140" height="26" as="alternateBounds" />
          </mxGeometry>
        </mxCell>
        <mxCell id="DAp46HCaXQgZN_aL6sgi-81" value="" style="shape=tableRow;horizontal=0;startSize=0;swimlaneHead=0;swimlaneBody=0;strokeColor=inherit;top=0;left=0;bottom=0;right=0;collapsible=0;dropTarget=0;fillColor=none;points=[[0,0.5],[1,0.5]];portConstraint=eastwest;fontSize=16;" vertex="1" parent="DAp46HCaXQgZN_aL6sgi-72">
          <mxGeometry y="52" width="140" height="26" as="geometry" />
        </mxCell>
        <mxCell id="DAp46HCaXQgZN_aL6sgi-82" value="&lt;font style=&quot;font-size: 12px;&quot;&gt;结果信息输出&lt;/font&gt;" style="shape=partialRectangle;html=1;whiteSpace=wrap;connectable=0;strokeColor=inherit;overflow=hidden;fillColor=none;top=0;left=0;bottom=0;right=0;pointerEvents=1;fontSize=16;" vertex="1" parent="DAp46HCaXQgZN_aL6sgi-81">
          <mxGeometry width="140" height="26" as="geometry">
            <mxRectangle width="140" height="26" as="alternateBounds" />
          </mxGeometry>
        </mxCell>
        <mxCell id="DAp46HCaXQgZN_aL6sgi-87" style="shape=tableRow;horizontal=0;startSize=0;swimlaneHead=0;swimlaneBody=0;strokeColor=inherit;top=0;left=0;bottom=0;right=0;collapsible=0;dropTarget=0;fillColor=none;points=[[0,0.5],[1,0.5]];portConstraint=eastwest;fontSize=16;" vertex="1" parent="DAp46HCaXQgZN_aL6sgi-72">
          <mxGeometry y="78" width="140" height="26" as="geometry" />
        </mxCell>
        <mxCell id="DAp46HCaXQgZN_aL6sgi-88" value="&lt;font style=&quot;font-size: 12px;&quot;&gt;错误信息输出&lt;/font&gt;" style="shape=partialRectangle;html=1;whiteSpace=wrap;connectable=0;strokeColor=inherit;overflow=hidden;fillColor=none;top=0;left=0;bottom=0;right=0;pointerEvents=1;fontSize=16;" vertex="1" parent="DAp46HCaXQgZN_aL6sgi-87">
          <mxGeometry width="140" height="26" as="geometry">
            <mxRectangle width="140" height="26" as="alternateBounds" />
          </mxGeometry>
        </mxCell>
        <mxCell id="DAp46HCaXQgZN_aL6sgi-85" style="shape=tableRow;horizontal=0;startSize=0;swimlaneHead=0;swimlaneBody=0;strokeColor=inherit;top=0;left=0;bottom=0;right=0;collapsible=0;dropTarget=0;fillColor=none;points=[[0,0.5],[1,0.5]];portConstraint=eastwest;fontSize=16;" vertex="1" parent="DAp46HCaXQgZN_aL6sgi-72">
          <mxGeometry y="104" width="140" height="26" as="geometry" />
        </mxCell>
        <mxCell id="DAp46HCaXQgZN_aL6sgi-86" value="&lt;font style=&quot;font-size: 12px;&quot;&gt;提示信息输出&lt;/font&gt;" style="shape=partialRectangle;html=1;whiteSpace=wrap;connectable=0;strokeColor=inherit;overflow=hidden;fillColor=none;top=0;left=0;bottom=0;right=0;pointerEvents=1;fontSize=16;" vertex="1" parent="DAp46HCaXQgZN_aL6sgi-85">
          <mxGeometry width="140" height="26" as="geometry">
            <mxRectangle width="140" height="26" as="alternateBounds" />
          </mxGeometry>
        </mxCell>
        <mxCell id="DAp46HCaXQgZN_aL6sgi-90" value="" style="shape=table;startSize=0;container=1;collapsible=0;childLayout=tableLayout;fontSize=16;dashed=1;" vertex="1" parent="1">
          <mxGeometry x="274" y="148" width="140" height="104" as="geometry" />
        </mxCell>
        <mxCell id="DAp46HCaXQgZN_aL6sgi-91" value="" style="shape=tableRow;horizontal=0;startSize=0;swimlaneHead=0;swimlaneBody=0;strokeColor=inherit;top=0;left=0;bottom=0;right=0;collapsible=0;dropTarget=0;fillColor=none;points=[[0,0.5],[1,0.5]];portConstraint=eastwest;fontSize=16;" vertex="1" parent="DAp46HCaXQgZN_aL6sgi-90">
          <mxGeometry width="140" height="26" as="geometry" />
        </mxCell>
        <mxCell id="DAp46HCaXQgZN_aL6sgi-92" value="主窗口&lt;font style=&quot;font-size: 12px;&quot;&gt;MainWindow&lt;/font&gt;" style="shape=partialRectangle;html=1;whiteSpace=wrap;connectable=0;strokeColor=inherit;overflow=hidden;fillColor=none;top=0;left=0;bottom=0;right=0;pointerEvents=1;fontSize=16;" vertex="1" parent="DAp46HCaXQgZN_aL6sgi-91">
          <mxGeometry width="140" height="26" as="geometry">
            <mxRectangle width="140" height="26" as="alternateBounds" />
          </mxGeometry>
        </mxCell>
        <mxCell id="DAp46HCaXQgZN_aL6sgi-93" value="" style="shape=tableRow;horizontal=0;startSize=0;swimlaneHead=0;swimlaneBody=0;strokeColor=inherit;top=0;left=0;bottom=0;right=0;collapsible=0;dropTarget=0;fillColor=none;points=[[0,0.5],[1,0.5]];portConstraint=eastwest;fontSize=16;" vertex="1" parent="DAp46HCaXQgZN_aL6sgi-90">
          <mxGeometry y="26" width="140" height="26" as="geometry" />
        </mxCell>
        <mxCell id="DAp46HCaXQgZN_aL6sgi-94" value="&lt;font style=&quot;font-size: 11px;&quot;&gt;工具栏命令按钮&lt;/font&gt;" style="shape=partialRectangle;html=1;whiteSpace=wrap;connectable=0;strokeColor=inherit;overflow=hidden;fillColor=none;top=0;left=0;bottom=0;right=0;pointerEvents=1;fontSize=16;" vertex="1" parent="DAp46HCaXQgZN_aL6sgi-93">
          <mxGeometry width="140" height="26" as="geometry">
            <mxRectangle width="140" height="26" as="alternateBounds" />
          </mxGeometry>
        </mxCell>
        <mxCell id="DAp46HCaXQgZN_aL6sgi-95" value="" style="shape=tableRow;horizontal=0;startSize=0;swimlaneHead=0;swimlaneBody=0;strokeColor=inherit;top=0;left=0;bottom=0;right=0;collapsible=0;dropTarget=0;fillColor=none;points=[[0,0.5],[1,0.5]];portConstraint=eastwest;fontSize=16;" vertex="1" parent="DAp46HCaXQgZN_aL6sgi-90">
          <mxGeometry y="52" width="140" height="26" as="geometry" />
        </mxCell>
        <mxCell id="DAp46HCaXQgZN_aL6sgi-96" value="&lt;font style=&quot;font-size: 12px;&quot;&gt;信号收集与分发&lt;/font&gt;" style="shape=partialRectangle;html=1;whiteSpace=wrap;connectable=0;strokeColor=inherit;overflow=hidden;fillColor=none;top=0;left=0;bottom=0;right=0;pointerEvents=1;fontSize=16;" vertex="1" parent="DAp46HCaXQgZN_aL6sgi-95">
          <mxGeometry width="140" height="26" as="geometry">
            <mxRectangle width="140" height="26" as="alternateBounds" />
          </mxGeometry>
        </mxCell>
        <mxCell id="DAp46HCaXQgZN_aL6sgi-97" style="shape=tableRow;horizontal=0;startSize=0;swimlaneHead=0;swimlaneBody=0;strokeColor=inherit;top=0;left=0;bottom=0;right=0;collapsible=0;dropTarget=0;fillColor=none;points=[[0,0.5],[1,0.5]];portConstraint=eastwest;fontSize=16;" vertex="1" parent="DAp46HCaXQgZN_aL6sgi-90">
          <mxGeometry y="78" width="140" height="26" as="geometry" />
        </mxCell>
        <mxCell id="DAp46HCaXQgZN_aL6sgi-98" value="&lt;font style=&quot;font-size: 12px;&quot;&gt;组装各个模块&lt;/font&gt;" style="shape=partialRectangle;html=1;whiteSpace=wrap;connectable=0;strokeColor=inherit;overflow=hidden;fillColor=none;top=0;left=0;bottom=0;right=0;pointerEvents=1;fontSize=16;" vertex="1" parent="DAp46HCaXQgZN_aL6sgi-97">
          <mxGeometry width="140" height="26" as="geometry">
            <mxRectangle width="140" height="26" as="alternateBounds" />
          </mxGeometry>
        </mxCell>
        <mxCell id="DAp46HCaXQgZN_aL6sgi-101" value="" style="shape=table;startSize=0;container=1;collapsible=0;childLayout=tableLayout;fontSize=16;dashed=1;" vertex="1" parent="1">
          <mxGeometry x="-36.25" y="570" width="177.5" height="156" as="geometry" />
        </mxCell>
        <mxCell id="DAp46HCaXQgZN_aL6sgi-102" value="" style="shape=tableRow;horizontal=0;startSize=0;swimlaneHead=0;swimlaneBody=0;strokeColor=inherit;top=0;left=0;bottom=0;right=0;collapsible=0;dropTarget=0;fillColor=none;points=[[0,0.5],[1,0.5]];portConstraint=eastwest;fontSize=16;" vertex="1" parent="DAp46HCaXQgZN_aL6sgi-101">
          <mxGeometry width="177.5" height="60" as="geometry" />
        </mxCell>
        <mxCell id="DAp46HCaXQgZN_aL6sgi-103" value="通用辅助模块&lt;br style=&quot;border-color: var(--border-color); font-size: 12px;&quot;&gt;&lt;span style=&quot;font-size: 12px;&quot;&gt;AuxiliaryMoudle&lt;/span&gt;" style="shape=partialRectangle;html=1;whiteSpace=wrap;connectable=0;strokeColor=inherit;overflow=hidden;fillColor=none;top=0;left=0;bottom=0;right=0;pointerEvents=1;fontSize=16;" vertex="1" parent="DAp46HCaXQgZN_aL6sgi-102">
          <mxGeometry width="178" height="60" as="geometry">
            <mxRectangle width="178" height="60" as="alternateBounds" />
          </mxGeometry>
        </mxCell>
        <mxCell id="DAp46HCaXQgZN_aL6sgi-104" value="" style="shape=tableRow;horizontal=0;startSize=0;swimlaneHead=0;swimlaneBody=0;strokeColor=inherit;top=0;left=0;bottom=0;right=0;collapsible=0;dropTarget=0;fillColor=none;points=[[0,0.5],[1,0.5]];portConstraint=eastwest;fontSize=16;" vertex="1" parent="DAp46HCaXQgZN_aL6sgi-101">
          <mxGeometry y="60" width="177.5" height="24" as="geometry" />
        </mxCell>
        <mxCell id="DAp46HCaXQgZN_aL6sgi-105" value="&lt;font style=&quot;font-size: 12px;&quot;&gt;类型转换&lt;/font&gt;" style="shape=partialRectangle;html=1;whiteSpace=wrap;connectable=0;strokeColor=inherit;overflow=hidden;fillColor=none;top=0;left=0;bottom=0;right=0;pointerEvents=1;fontSize=16;" vertex="1" parent="DAp46HCaXQgZN_aL6sgi-104">
          <mxGeometry width="178" height="24" as="geometry">
            <mxRectangle width="178" height="24" as="alternateBounds" />
          </mxGeometry>
        </mxCell>
        <mxCell id="DAp46HCaXQgZN_aL6sgi-106" value="" style="shape=tableRow;horizontal=0;startSize=0;swimlaneHead=0;swimlaneBody=0;strokeColor=inherit;top=0;left=0;bottom=0;right=0;collapsible=0;dropTarget=0;fillColor=none;points=[[0,0.5],[1,0.5]];portConstraint=eastwest;fontSize=16;" vertex="1" parent="DAp46HCaXQgZN_aL6sgi-101">
          <mxGeometry y="84" width="177.5" height="24" as="geometry" />
        </mxCell>
        <mxCell id="DAp46HCaXQgZN_aL6sgi-107" value="&lt;font style=&quot;font-size: 12px;&quot;&gt;几何算法&lt;/font&gt;" style="shape=partialRectangle;html=1;whiteSpace=wrap;connectable=0;strokeColor=inherit;overflow=hidden;fillColor=none;top=0;left=0;bottom=0;right=0;pointerEvents=1;fontSize=16;" vertex="1" parent="DAp46HCaXQgZN_aL6sgi-106">
          <mxGeometry width="178" height="24" as="geometry">
            <mxRectangle width="178" height="24" as="alternateBounds" />
          </mxGeometry>
        </mxCell>
        <mxCell id="DAp46HCaXQgZN_aL6sgi-108" style="shape=tableRow;horizontal=0;startSize=0;swimlaneHead=0;swimlaneBody=0;strokeColor=inherit;top=0;left=0;bottom=0;right=0;collapsible=0;dropTarget=0;fillColor=none;points=[[0,0.5],[1,0.5]];portConstraint=eastwest;fontSize=16;" vertex="1" parent="DAp46HCaXQgZN_aL6sgi-101">
          <mxGeometry y="108" width="177.5" height="24" as="geometry" />
        </mxCell>
        <mxCell id="DAp46HCaXQgZN_aL6sgi-109" value="&lt;font style=&quot;font-size: 12px;&quot;&gt;属性继承&lt;/font&gt;" style="shape=partialRectangle;html=1;whiteSpace=wrap;connectable=0;strokeColor=inherit;overflow=hidden;fillColor=none;top=0;left=0;bottom=0;right=0;pointerEvents=1;fontSize=16;" vertex="1" parent="DAp46HCaXQgZN_aL6sgi-108">
          <mxGeometry width="178" height="24" as="geometry">
            <mxRectangle width="178" height="24" as="alternateBounds" />
          </mxGeometry>
        </mxCell>
        <mxCell id="DAp46HCaXQgZN_aL6sgi-110" style="shape=tableRow;horizontal=0;startSize=0;swimlaneHead=0;swimlaneBody=0;strokeColor=inherit;top=0;left=0;bottom=0;right=0;collapsible=0;dropTarget=0;fillColor=none;points=[[0,0.5],[1,0.5]];portConstraint=eastwest;fontSize=16;" vertex="1" parent="DAp46HCaXQgZN_aL6sgi-101">
          <mxGeometry y="132" width="177.5" height="24" as="geometry" />
        </mxCell>
        <mxCell id="DAp46HCaXQgZN_aL6sgi-111" value="&lt;font style=&quot;font-size: 12px;&quot;&gt;拓扑元素命名算法&lt;/font&gt;" style="shape=partialRectangle;html=1;whiteSpace=wrap;connectable=0;strokeColor=inherit;overflow=hidden;fillColor=none;top=0;left=0;bottom=0;right=0;pointerEvents=1;fontSize=16;" vertex="1" parent="DAp46HCaXQgZN_aL6sgi-110">
          <mxGeometry width="178" height="24" as="geometry">
            <mxRectangle width="178" height="24" as="alternateBounds" />
          </mxGeometry>
        </mxCell>
        <mxCell id="DAp46HCaXQgZN_aL6sgi-113" value="" style="shape=table;startSize=0;container=1;collapsible=0;childLayout=tableLayout;fontSize=16;dashed=1;" vertex="1" parent="1">
          <mxGeometry x="370" y="430" width="177.5" height="78" as="geometry" />
        </mxCell>
        <mxCell id="DAp46HCaXQgZN_aL6sgi-114" value="" style="shape=tableRow;horizontal=0;startSize=0;swimlaneHead=0;swimlaneBody=0;strokeColor=inherit;top=0;left=0;bottom=0;right=0;collapsible=0;dropTarget=0;fillColor=none;points=[[0,0.5],[1,0.5]];portConstraint=eastwest;fontSize=16;" vertex="1" parent="DAp46HCaXQgZN_aL6sgi-113">
          <mxGeometry width="177.5" height="30" as="geometry" />
        </mxCell>
        <mxCell id="DAp46HCaXQgZN_aL6sgi-115" value="工具面板" style="shape=partialRectangle;html=1;whiteSpace=wrap;connectable=0;strokeColor=inherit;overflow=hidden;fillColor=none;top=0;left=0;bottom=0;right=0;pointerEvents=1;fontSize=16;" vertex="1" parent="DAp46HCaXQgZN_aL6sgi-114">
          <mxGeometry width="178" height="30" as="geometry">
            <mxRectangle width="178" height="30" as="alternateBounds" />
          </mxGeometry>
        </mxCell>
        <mxCell id="DAp46HCaXQgZN_aL6sgi-116" value="" style="shape=tableRow;horizontal=0;startSize=0;swimlaneHead=0;swimlaneBody=0;strokeColor=inherit;top=0;left=0;bottom=0;right=0;collapsible=0;dropTarget=0;fillColor=none;points=[[0,0.5],[1,0.5]];portConstraint=eastwest;fontSize=16;" vertex="1" parent="DAp46HCaXQgZN_aL6sgi-113">
          <mxGeometry y="30" width="177.5" height="24" as="geometry" />
        </mxCell>
        <mxCell id="DAp46HCaXQgZN_aL6sgi-117" value="&lt;font style=&quot;font-size: 12px;&quot;&gt;任务窗口&lt;/font&gt;" style="shape=partialRectangle;html=1;whiteSpace=wrap;connectable=0;strokeColor=inherit;overflow=hidden;fillColor=none;top=0;left=0;bottom=0;right=0;pointerEvents=1;fontSize=16;" vertex="1" parent="DAp46HCaXQgZN_aL6sgi-116">
          <mxGeometry width="178" height="24" as="geometry">
            <mxRectangle width="178" height="24" as="alternateBounds" />
          </mxGeometry>
        </mxCell>
        <mxCell id="DAp46HCaXQgZN_aL6sgi-122" style="shape=tableRow;horizontal=0;startSize=0;swimlaneHead=0;swimlaneBody=0;strokeColor=inherit;top=0;left=0;bottom=0;right=0;collapsible=0;dropTarget=0;fillColor=none;points=[[0,0.5],[1,0.5]];portConstraint=eastwest;fontSize=16;" vertex="1" parent="DAp46HCaXQgZN_aL6sgi-113">
          <mxGeometry y="54" width="177.5" height="24" as="geometry" />
        </mxCell>
        <mxCell id="DAp46HCaXQgZN_aL6sgi-123" value="&lt;font style=&quot;font-size: 12px;&quot;&gt;扩展命令按钮&lt;/font&gt;" style="shape=partialRectangle;html=1;whiteSpace=wrap;connectable=0;strokeColor=inherit;overflow=hidden;fillColor=none;top=0;left=0;bottom=0;right=0;pointerEvents=1;fontSize=16;" vertex="1" parent="DAp46HCaXQgZN_aL6sgi-122">
          <mxGeometry width="178" height="24" as="geometry">
            <mxRectangle width="178" height="24" as="alternateBounds" />
          </mxGeometry>
        </mxCell>
        <mxCell id="DAp46HCaXQgZN_aL6sgi-124" value="" style="shape=table;startSize=0;container=1;collapsible=0;childLayout=tableLayout;fontSize=16;dashed=1;" vertex="1" parent="1">
          <mxGeometry x="-60" y="170" width="177.5" height="54" as="geometry" />
        </mxCell>
        <mxCell id="DAp46HCaXQgZN_aL6sgi-125" value="" style="shape=tableRow;horizontal=0;startSize=0;swimlaneHead=0;swimlaneBody=0;strokeColor=inherit;top=0;left=0;bottom=0;right=0;collapsible=0;dropTarget=0;fillColor=none;points=[[0,0.5],[1,0.5]];portConstraint=eastwest;fontSize=16;" vertex="1" parent="DAp46HCaXQgZN_aL6sgi-124">
          <mxGeometry width="177.5" height="30" as="geometry" />
        </mxCell>
        <mxCell id="DAp46HCaXQgZN_aL6sgi-126" value="中央子窗口(模型空间）" style="shape=partialRectangle;html=1;whiteSpace=wrap;connectable=0;strokeColor=inherit;overflow=hidden;fillColor=none;top=0;left=0;bottom=0;right=0;pointerEvents=1;fontSize=16;" vertex="1" parent="DAp46HCaXQgZN_aL6sgi-125">
          <mxGeometry width="178" height="30" as="geometry">
            <mxRectangle width="178" height="30" as="alternateBounds" />
          </mxGeometry>
        </mxCell>
        <mxCell id="DAp46HCaXQgZN_aL6sgi-127" value="" style="shape=tableRow;horizontal=0;startSize=0;swimlaneHead=0;swimlaneBody=0;strokeColor=inherit;top=0;left=0;bottom=0;right=0;collapsible=0;dropTarget=0;fillColor=none;points=[[0,0.5],[1,0.5]];portConstraint=eastwest;fontSize=16;" vertex="1" parent="DAp46HCaXQgZN_aL6sgi-124">
          <mxGeometry y="30" width="177.5" height="24" as="geometry" />
        </mxCell>
        <mxCell id="DAp46HCaXQgZN_aL6sgi-128" value="OccView" style="shape=partialRectangle;html=1;whiteSpace=wrap;connectable=0;strokeColor=inherit;overflow=hidden;fillColor=none;top=0;left=0;bottom=0;right=0;pointerEvents=1;fontSize=16;" vertex="1" parent="DAp46HCaXQgZN_aL6sgi-127">
          <mxGeometry width="178" height="24" as="geometry">
            <mxRectangle width="178" height="24" as="alternateBounds" />
          </mxGeometry>
        </mxCell>
      </root>
    </mxGraphModel>
  </diagram>
</mxfile>
